<svg width="34" height="34" viewBox="0 0 34 34" fill="none" xmlns="http://www.w3.org/2000/svg">
<path d="M23.18 15.12C22.9867 14.8133 22.78 14.5266 22.5667 14.26C22.32 13.9466 21.8533 13.92 21.5733 14.2L19.5733 16.2C19.72 16.64 19.7467 17.1466 19.6133 17.6733C19.38 18.6133 18.62 19.3733 17.68 19.6066C17.1533 19.74 16.6467 19.7133 16.2067 19.5666C16.2067 19.5666 15.2533 20.52 14.5667 21.2066C14.2333 21.54 14.34 22.1266 14.7867 22.3C15.5 22.5733 16.24 22.7133 17 22.7133C18.1867 22.7133 19.34 22.3666 20.3933 21.72C21.4667 21.0533 22.4333 20.0733 23.2133 18.8266C23.8467 17.82 23.8133 16.1266 23.18 15.12Z" fill="#999999"/>
<path d="M18.3467 15.6533L15.6533 18.3467C15.3133 18 15.0933 17.52 15.0933 17C15.0933 15.9533 15.9467 15.0933 17 15.0933C17.52 15.0933 18 15.3133 18.3467 15.6533Z" fill="#999999"/>
<path d="M21.1666 12.8333L18.9066 15.0933C18.42 14.6 17.7466 14.3067 17 14.3067C15.5066 14.3067 14.3066 15.5133 14.3066 17C14.3066 17.7467 14.6066 18.42 15.0933 18.9067L12.84 21.1667H12.8333C12.0933 20.5667 11.4133 19.8 10.8333 18.8933C10.1666 17.8467 10.1666 16.1467 10.8333 15.1C11.6066 13.8867 12.5533 12.9333 13.6066 12.28C14.66 11.64 15.8133 11.2867 17 11.2867C18.4866 11.2867 19.9266 11.8333 21.1666 12.8333Z" fill="#999999"/>
<path d="M18.9067 17C18.9067 18.0467 18.0533 18.9067 17 18.9067C16.96 18.9067 16.9267 18.9067 16.8867 18.8933L18.8933 16.8867C18.9067 16.9267 18.9067 16.96 18.9067 17Z" fill="#999999"/>
<path d="M23.5133 10.4867C23.3133 10.2867 22.9867 10.2867 22.7867 10.4867L10.4867 22.7933C10.2867 22.9933 10.2867 23.32 10.4867 23.52C10.5867 23.6133 10.7133 23.6667 10.8467 23.6667C10.98 23.6667 11.1067 23.6133 11.2067 23.5133L23.5133 11.2067C23.72 11.0067 23.72 10.6867 23.5133 10.4867Z" fill="#999999"/>
</svg>
