<svg width="20" height="20" viewBox="0 0 20 20" fill="none" xmlns="http://www.w3.org/2000/svg">
<path d="M10.0999 9.90011L9.39493 10.6051C9.00493 10.9951 9.00493 11.6301 9.39493 12.0201C9.78493 12.4101 10.4199 12.4101 10.8099 12.0201L11.92 10.9101C12.6999 10.1301 12.6999 8.86512 11.92 8.08012C11.14 7.30012 9.87493 7.30012 9.08993 8.08012L7.87994 9.29011C7.20994 9.96011 7.20994 11.0451 7.87994 11.7151" stroke="#999999" stroke-width="0.8" stroke-linecap="round" stroke-linejoin="round"/>
<path d="M8.5 15H11.5C14 15 15 14 15 11.5V8.5C15 6 14 5 11.5 5H8.5C6 5 5 6 5 8.5V11.5C5 14 6 15 8.5 15Z" stroke="#999999" stroke-width="0.8" stroke-linecap="round" stroke-linejoin="round"/>
</svg>
