<svg width="13" height="13" viewBox="0 0 13 13" fill="none" xmlns="http://www.w3.org/2000/svg">
<path d="M5.65519 2.21501C5.65519 2.31639 5.56981 2.40177 5.46843 2.40177H4.86545C3.71286 2.40177 2.77371 3.34092 2.77371 4.49351V9.41871C2.77371 9.52009 2.68833 9.60547 2.58694 9.60547H2.21342C1.57843 9.60547 1.06616 9.09321 1.06616 8.45822V2.21501C1.06616 1.58001 1.57843 1.06775 2.21342 1.06775H4.50793C5.14293 1.06775 5.65519 1.58001 5.65519 2.21501Z" fill="#999999"/>
<path d="M11.7397 2.21501V8.45822C11.7397 9.09321 11.2274 9.60547 10.5924 9.60547H10.2562C10.1548 9.60547 10.0695 9.52009 10.0695 9.41871V4.49351C10.0695 3.34092 9.13032 2.40177 7.97773 2.40177H7.3374C7.23601 2.40177 7.15063 2.31639 7.15063 2.21501C7.15063 1.58001 7.6629 1.06775 8.29789 1.06775H10.5924C11.2274 1.06775 11.7397 1.58001 11.7397 2.21501Z" fill="#999999"/>
<path d="M7.97599 3.20166H4.86506C4.15003 3.20166 3.57373 3.77796 3.57373 4.49299V10.4481C3.57373 11.1631 4.15003 11.7394 4.86506 11.7394H5.73484C5.88425 11.7394 6.00165 11.622 6.00165 11.4726V10.1386C6.00165 9.91978 6.18307 9.73835 6.40185 9.73835C6.62063 9.73835 6.80206 9.91978 6.80206 10.1386V11.4726C6.80206 11.622 6.91945 11.7394 7.06886 11.7394H7.98133C8.69103 11.7394 9.26732 11.1631 9.26732 10.4534V4.49299C9.26732 3.77796 8.69103 3.20166 7.97599 3.20166ZM7.46907 7.87073H5.33464C5.11586 7.87073 4.93443 7.6893 4.93443 7.47052C4.93443 7.25174 5.11586 7.07032 5.33464 7.07032H7.46907C7.68785 7.07032 7.86927 7.25174 7.86927 7.47052C7.86927 7.6893 7.68785 7.87073 7.46907 7.87073ZM7.46907 6.2699H5.33464C5.11586 6.2699 4.93443 6.08848 4.93443 5.8697C4.93443 5.65092 5.11586 5.46949 5.33464 5.46949H7.46907C7.68785 5.46949 7.86927 5.65092 7.86927 5.8697C7.86927 6.08848 7.68785 6.2699 7.46907 6.2699Z" fill="#999999"/>
</svg>
