<svg width="13" height="13" viewBox="0 0 13 13" fill="none" xmlns="http://www.w3.org/2000/svg">
<path d="M4.4024 3.06872C4.18362 3.06872 4.0022 2.88729 4.0022 2.66851V1.06769C4.0022 0.848907 4.18362 0.66748 4.4024 0.66748C4.62118 0.66748 4.80261 0.848907 4.80261 1.06769V2.66851C4.80261 2.88729 4.62118 3.06872 4.4024 3.06872Z" fill="#999999"/>
<path d="M8.40436 3.06872C8.18558 3.06872 8.00415 2.88729 8.00415 2.66851V1.06769C8.00415 0.848907 8.18558 0.66748 8.40436 0.66748C8.62314 0.66748 8.80456 0.848907 8.80456 1.06769V2.66851C8.80456 2.88729 8.62314 3.06872 8.40436 3.06872Z" fill="#999999"/>
<path d="M6.40212 7.51897C6.6796 7.51897 6.88237 7.35355 6.88237 7.09208C6.88237 6.82528 6.6796 6.67053 6.40212 6.67053C6.12465 6.67053 5.92188 6.82528 5.92188 7.09208C5.92188 7.35355 6.12465 7.51897 6.40212 7.51897Z" fill="#999999"/>
<path d="M6.40201 9.07161C6.73798 9.07161 7.01033 8.84943 7.01033 8.57536C7.01033 8.30128 6.73798 8.0791 6.40201 8.0791C6.06605 8.0791 5.7937 8.30128 5.7937 8.57536C5.7937 8.84943 6.06605 9.07161 6.40201 9.07161Z" fill="#999999"/>
<path d="M10.4439 2.40165C10.0917 2.14018 9.58478 2.39098 9.58478 2.83387V2.88723C9.58478 3.51155 9.13655 4.08785 8.51223 4.15188C7.79186 4.22659 7.18355 3.66096 7.18355 2.9566V2.40165C7.18355 2.10817 6.94342 1.86804 6.64994 1.86804H6.15902C5.86553 1.86804 5.62541 2.10817 5.62541 2.40165V2.9566C5.62541 3.37815 5.40663 3.75168 5.07579 3.95978C5.02777 3.9918 4.97441 4.01848 4.92105 4.04516C4.87302 4.07184 4.81966 4.09319 4.76097 4.10919C4.69693 4.13054 4.62756 4.14655 4.55286 4.15188C4.46748 4.16255 4.3821 4.16255 4.29673 4.15188C4.22202 4.14655 4.15265 4.13054 4.08862 4.10919C4.03526 4.09319 3.9819 4.07184 3.92854 4.04516C3.87518 4.01848 3.82182 3.9918 3.77379 3.95978C3.43762 3.725 3.22418 3.31945 3.22418 2.88723V2.83387C3.22418 2.42299 2.78662 2.17753 2.43977 2.35362C2.43444 2.35896 2.4291 2.35896 2.42376 2.3643C2.40242 2.37497 2.38641 2.38564 2.36507 2.40165C2.34906 2.41766 2.32772 2.42833 2.31171 2.44434C2.1623 2.56173 2.02889 2.69513 1.91684 2.83921C1.85814 2.90324 1.81012 2.97261 1.76743 3.04198C1.76209 3.04731 1.75676 3.05265 1.75142 3.06332C1.70339 3.13269 1.66071 3.21273 1.62335 3.28744C1.61268 3.29811 1.60734 3.30345 1.60734 3.31412C1.57533 3.37815 1.54331 3.44218 1.52197 3.51155C1.50596 3.53823 1.50062 3.55958 1.48995 3.58626C1.45793 3.6663 1.43659 3.74634 1.41525 3.82638C1.3939 3.90109 1.37789 3.98113 1.36722 4.06117C1.35655 4.11987 1.35121 4.17856 1.34588 4.2426C1.34054 4.3173 1.33521 4.39201 1.33521 4.46671V9.14111C1.33521 10.5765 2.49847 11.7398 3.93387 11.7398H8.87508C10.3105 11.7398 11.4738 10.5765 11.4738 9.14111V4.46671C11.4738 3.61828 11.0682 2.87656 10.4439 2.40165ZM6.40448 9.73876C5.57739 9.73876 5.07046 9.32788 5.07046 8.6662C5.07046 8.30335 5.25722 7.98852 5.58272 7.80176C5.34793 7.63634 5.19319 7.39088 5.19319 7.05471C5.19319 6.36102 5.74814 6.0035 6.40448 6.0035C7.06082 6.0035 7.61043 6.36102 7.61043 7.05471C7.61043 7.39088 7.46102 7.63634 7.2209 7.80176C7.55173 7.98852 7.7385 8.30335 7.7385 8.6662C7.7385 9.32788 7.22623 9.73876 6.40448 9.73876Z" fill="#999999"/>
</svg>
