<svg width="15" height="15" viewBox="0 0 15 15" fill="none" xmlns="http://www.w3.org/2000/svg">
<path d="M6.51463 8.81375L5.42396 9.90442C5.19403 10.1343 4.82851 10.1343 4.59269 9.91031C4.52784 9.84546 4.46299 9.78651 4.39814 9.72166C3.79091 9.10852 3.24262 8.46592 2.7533 7.79383C2.26987 7.12174 1.88076 6.44965 1.59778 5.78346C1.32069 5.11138 1.1792 4.46877 1.1792 3.85563C1.1792 3.45474 1.24995 3.07153 1.39144 2.7178C1.53293 2.35818 1.75696 2.02803 2.06942 1.73325C2.44673 1.36184 2.85942 1.17908 3.29568 1.17908C3.46076 1.17908 3.62583 1.21445 3.77322 1.2852C3.9265 1.35594 4.0621 1.46206 4.16822 1.61534L5.53597 3.54317C5.64209 3.69056 5.71873 3.82616 5.77179 3.95586C5.82485 4.07966 5.85433 4.20347 5.85433 4.31548C5.85433 4.45698 5.81306 4.59847 5.73053 4.73406C5.65388 4.86966 5.54187 5.01115 5.40038 5.15264L4.95232 5.61839C4.88747 5.68324 4.85799 5.75988 4.85799 5.85421C4.85799 5.90137 4.86389 5.94264 4.87568 5.98981C4.89336 6.03697 4.91105 6.07234 4.92284 6.10772C5.02896 6.30227 5.21172 6.55577 5.47112 6.86234C5.73642 7.16891 6.0194 7.48137 6.32597 7.79383C6.38493 7.85278 6.44978 7.91174 6.50873 7.97069C6.74455 8.20062 6.75045 8.57793 6.51463 8.81375Z" fill="#999999"/>
<path d="M12.9524 10.8064C12.9524 10.9715 12.9229 11.1424 12.864 11.3075C12.8463 11.3547 12.8286 11.4018 12.805 11.449C12.7048 11.6612 12.5751 11.8617 12.4041 12.0503C12.1152 12.3687 11.7969 12.5986 11.4373 12.746C11.4314 12.746 11.4255 12.7519 11.4196 12.7519C11.0717 12.8934 10.6944 12.97 10.2876 12.97C9.6863 12.97 9.04368 12.8285 8.3657 12.5397C7.68772 12.2508 7.00974 11.8617 6.33765 11.3724C6.10773 11.2014 5.8778 11.0304 5.65967 10.8477L7.5875 8.91983C7.75257 9.04364 7.89996 9.13796 8.02376 9.20282C8.05324 9.21461 8.08861 9.23229 8.12988 9.24998C8.17705 9.26767 8.22421 9.27356 8.27727 9.27356C8.37749 9.27356 8.45413 9.23819 8.51899 9.17334L8.96704 8.73118C9.11443 8.58379 9.25592 8.47177 9.39152 8.40103C9.52712 8.31849 9.66271 8.27722 9.8101 8.27722C9.92211 8.27722 10.04 8.3008 10.1697 8.35386C10.2994 8.40692 10.435 8.48356 10.5824 8.58379L12.5338 9.96923C12.6871 10.0753 12.7932 10.1992 12.8581 10.3465C12.917 10.4939 12.9524 10.6413 12.9524 10.8064Z" fill="#999999"/>
</svg>
