<svg width="15" height="15" viewBox="0 0 15 15" fill="none" xmlns="http://www.w3.org/2000/svg">
<path d="M12.97 7.58157C12.97 8.93164 12.2743 10.1284 11.2013 10.883L10.4113 12.6222C10.2286 13.0172 9.69798 13.0939 9.42089 12.7578L8.54835 11.7084C7.45179 11.7084 6.44366 11.337 5.67725 10.718L6.03098 10.2994C8.7547 10.0931 10.9066 7.9353 10.9066 5.30591C10.9066 4.85785 10.8417 4.41569 10.7238 3.99121C12.0621 4.69867 12.97 6.04284 12.97 7.58157Z" fill="#999999"/>
<path d="M9.60976 3.57855C8.91999 2.16363 7.38127 1.17908 5.60082 1.17908C3.16009 1.17908 1.1792 3.02437 1.1792 5.30593C1.1792 6.656 1.87487 7.85278 2.94785 8.60741L3.73785 10.3466C3.92061 10.7416 4.4512 10.8123 4.72829 10.4822L5.05254 10.0931L5.60082 9.43278C8.04156 9.43278 10.0224 7.58749 10.0224 5.30593C10.0224 4.6869 9.87506 4.10325 9.60976 3.57855ZM7.0747 5.74809H4.12695C3.88523 5.74809 3.68479 5.54764 3.68479 5.30593C3.68479 5.06421 3.88523 4.86376 4.12695 4.86376H7.0747C7.31641 4.86376 7.51686 5.06421 7.51686 5.30593C7.51686 5.54764 7.31641 5.74809 7.0747 5.74809Z" fill="#999999"/>
</svg>
