<svg width="15" height="15" viewBox="0 0 15 15" fill="none" xmlns="http://www.w3.org/2000/svg">
<path d="M10.0224 2.06348H4.12695C2.3583 2.06348 1.1792 2.9478 1.1792 5.01123V9.13808C1.1792 11.2015 2.3583 12.0858 4.12695 12.0858H10.0224C11.7911 12.0858 12.9702 11.2015 12.9702 9.13808V5.01123C12.9702 2.9478 11.7911 2.06348 10.0224 2.06348ZM10.2995 5.65384L8.45425 7.12771C8.06514 7.44017 7.56992 7.59346 7.0747 7.59346C6.57948 7.59346 6.07836 7.44017 5.69515 7.12771L3.84986 5.65384C3.6612 5.50055 3.63173 5.21757 3.77911 5.02891C3.9324 4.84026 4.20949 4.80488 4.39814 4.95817L6.24343 6.43204C6.69149 6.79167 7.45201 6.79167 7.90007 6.43204L9.74536 4.95817C9.93402 4.80488 10.217 4.83436 10.3644 5.02891C10.5177 5.21757 10.4882 5.50055 10.2995 5.65384Z" fill="#999999"/>
</svg>
