<svg width="13" height="13" viewBox="0 0 13 13" fill="none" xmlns="http://www.w3.org/2000/svg">
<path d="M9.10596 6.23066L8.48946 5.61416C8.34292 5.48783 8.25701 5.30086 8.25196 5.09367C8.24185 4.86628 8.33281 4.63888 8.49957 4.47212L9.10596 3.86573C9.63151 3.34018 9.82858 2.83486 9.66183 2.43565C9.50012 2.04149 8.99985 1.8242 8.26207 1.8242H2.98138V1.38962C2.98138 1.18243 2.80957 1.01062 2.60239 1.01062C2.3952 1.01062 2.22339 1.18243 2.22339 1.38962V10.7382C2.22339 10.9454 2.3952 11.1172 2.60239 11.1172C2.80957 11.1172 2.98138 10.9454 2.98138 10.7382V8.27219H8.26207C8.98974 8.27219 9.47991 8.04985 9.64667 7.65064C9.81342 7.25143 9.6214 6.75115 9.10596 6.23066Z" fill="#999999"/>
</svg>
