<svg width="14" height="14" viewBox="0 0 14 14" fill="none" xmlns="http://www.w3.org/2000/svg">
<path d="M11.6901 3.97832L8.33006 1.62748C7.41422 0.985817 6.00839 1.02082 5.12756 1.70332L2.20506 3.98415C1.62172 4.43915 1.16089 5.37248 1.16089 6.10748V10.1325C1.16089 11.62 2.36839 12.8333 3.85589 12.8333H10.1442C11.6317 12.8333 12.8392 11.6258 12.8392 10.1383V6.18332C12.8392 5.39582 12.3317 4.42748 11.6901 3.97832ZM7.43756 10.5C7.43756 10.7392 7.23922 10.9375 7.00006 10.9375C6.76089 10.9375 6.56256 10.7392 6.56256 10.5V8.74998C6.56256 8.51082 6.76089 8.31248 7.00006 8.31248C7.23922 8.31248 7.43756 8.51082 7.43756 8.74998V10.5Z" fill="#999999"/>
</svg>
