<svg width="15" height="15" viewBox="0 0 15 15" fill="none" xmlns="http://www.w3.org/2000/svg">
<path d="M7.0747 1.17908C3.82038 1.17908 1.1792 3.82026 1.1792 7.07458C1.1792 10.3289 3.82038 12.9701 7.0747 12.9701C10.329 12.9701 12.9702 10.3289 12.9702 7.07458C12.9702 3.82026 10.329 1.17908 7.0747 1.17908ZM7.0747 5.15854C6.83298 5.15854 6.63254 4.95809 6.63254 4.71638C6.63254 4.47466 6.83298 4.27421 7.0747 4.27421C8.61932 4.27421 9.87506 5.52996 9.87506 7.07458C9.87506 8.6192 8.61932 9.87494 7.0747 9.87494C6.83298 9.87494 6.63254 9.67449 6.63254 9.43278C6.63254 9.19106 6.83298 8.99061 7.0747 8.99061C8.12999 8.99061 8.99074 8.12987 8.99074 7.07458C8.99074 6.01928 8.12999 5.15854 7.0747 5.15854ZM7.0747 11.6436C4.55732 11.6436 2.50569 9.59196 2.50569 7.07458C2.50569 6.83286 2.70613 6.63241 2.94785 6.63241C3.18956 6.63241 3.39001 6.83286 3.39001 7.07458C3.39001 9.10852 5.04075 10.7593 7.0747 10.7593C9.10865 10.7593 10.7594 9.10852 10.7594 7.07458C10.7594 5.04063 9.10865 3.38989 7.0747 3.38989C6.83298 3.38989 6.63254 3.18944 6.63254 2.94773C6.63254 2.70601 6.83298 2.50556 7.0747 2.50556C9.59208 2.50556 11.6437 4.5572 11.6437 7.07458C11.6437 9.59196 9.59208 11.6436 7.0747 11.6436Z" fill="#999999"/>
</svg>
