<svg width="24" height="24" viewBox="0 0 24 24" fill="none" xmlns="http://www.w3.org/2000/svg">
<rect width="24" height="24" rx="8" fill="#222222"/>
<path d="M14.1675 5.5875H9.83248C9.53248 5.5875 9.29248 5.3475 9.29248 5.0475C9.29248 4.7475 9.53248 4.5 9.83248 4.5H14.1675C14.4675 4.5 14.7075 4.74 14.7075 5.04C14.7075 5.34 14.4675 5.5875 14.1675 5.5875Z" fill="#999999"/>
<path d="M13.5001 17.9775V15.7725C13.5001 14.415 14.4151 13.5 15.7726 13.5H17.9776C18.1501 13.5 18.3151 13.515 18.4726 13.545C18.4876 13.365 18.5026 13.185 18.5026 12.9975C18.5026 9.40505 15.5851 6.48755 12.0001 6.48755C8.41506 6.48755 5.49756 9.40505 5.49756 12.9975C5.49756 16.5825 8.41506 19.5 12.0001 19.5C12.6376 19.5 13.2451 19.395 13.8301 19.23C13.6201 18.8775 13.5001 18.4575 13.5001 17.9775ZM12.5626 12.75C12.5626 13.0575 12.3076 13.3125 12.0001 13.3125C11.6926 13.3125 11.4376 13.0575 11.4376 12.75V9.00005C11.4376 8.69255 11.6926 8.43755 12.0001 8.43755C12.3076 8.43755 12.5626 8.69255 12.5626 9.00005V12.75Z" fill="#999999"/>
<path d="M17.9775 14.25H15.78C14.82 14.25 14.25 14.82 14.25 15.7725V17.9775C14.25 18.93 14.82 19.5 15.78 19.5H17.9775C18.93 19.5 19.5 18.93 19.5 17.9775V15.7725C19.5 14.82 18.93 14.25 17.9775 14.25ZM16.44 18.045C16.44 18.285 16.245 18.48 15.9975 18.48C15.7575 18.48 15.5625 18.285 15.5625 18.045V15.705C15.5625 15.465 15.7575 15.27 15.9975 15.27C16.245 15.27 16.44 15.465 16.44 15.705V18.045ZM18.1875 18.045C18.1875 18.285 17.9925 18.48 17.7525 18.48C17.5125 18.48 17.31 18.285 17.31 18.045V15.705C17.31 15.465 17.5125 15.27 17.7525 15.27C17.9925 15.27 18.1875 15.465 18.1875 15.705V18.045Z" fill="#999999"/>
</svg>
