<svg width="24" height="24" viewBox="0 0 24 24" fill="none" xmlns="http://www.w3.org/2000/svg">
<rect width="24" height="24" rx="8" fill="#222222"/>
<path d="M15.1425 4.5H8.8575C6.1275 4.5 4.5 6.1275 4.5 8.8575V15.135C4.5 17.8725 6.1275 19.5 8.8575 19.5H15.135C17.865 19.5 19.4925 17.8725 19.4925 15.1425V8.8575C19.5 6.1275 17.8725 4.5 15.1425 4.5ZM11.6475 13.1475L8.8575 15.9375H10.5C10.8075 15.9375 11.0625 16.1925 11.0625 16.5C11.0625 16.8075 10.8075 17.0625 10.5 17.0625H7.5C7.425 17.0625 7.35 17.0475 7.2825 17.0175C7.1475 16.9575 7.035 16.8525 6.975 16.71C6.9525 16.6425 6.9375 16.575 6.9375 16.5V13.5C6.9375 13.1925 7.1925 12.9375 7.5 12.9375C7.8075 12.9375 8.0625 13.1925 8.0625 13.5V15.1425L10.8525 12.3525C11.07 12.135 11.43 12.135 11.6475 12.3525C11.865 12.57 11.865 12.93 11.6475 13.1475ZM17.0625 10.5C17.0625 10.8075 16.8075 11.0625 16.5 11.0625C16.1925 11.0625 15.9375 10.8075 15.9375 10.5V8.8575L13.1475 11.6475C13.035 11.76 12.8925 11.8125 12.75 11.8125C12.6075 11.8125 12.465 11.76 12.3525 11.6475C12.135 11.43 12.135 11.07 12.3525 10.8525L15.1425 8.0625H13.5C13.1925 8.0625 12.9375 7.8075 12.9375 7.5C12.9375 7.1925 13.1925 6.9375 13.5 6.9375H16.5C16.575 6.9375 16.6425 6.9525 16.7175 6.9825C16.8525 7.0425 16.965 7.1475 17.025 7.29C17.0475 7.3575 17.0625 7.425 17.0625 7.5V10.5Z" fill="#999999"/>
</svg>
