<svg width="12" height="12" viewBox="0 0 12 12" fill="none" xmlns="http://www.w3.org/2000/svg">
<path d="M4.57495 3.745C4.29495 3.745 4.07495 3.97 4.07495 4.245C4.07495 4.52 4.29995 4.745 4.57495 4.745C4.84995 4.745 5.07495 4.52 5.07495 4.245C5.07495 3.97 4.84995 3.745 4.57495 3.745Z" fill="white"/>
<path d="M10.73 2.52C10.31 1.545 9.385 1 8.095 1H3.905C2.3 1 1 2.3 1 3.905V8.095C1 9.385 1.545 10.31 2.52 10.73C2.615 10.77 2.725 10.745 2.795 10.675L10.675 2.795C10.75 2.72 10.775 2.61 10.73 2.52ZM5.265 6.12C5.07 6.31 4.815 6.4 4.56 6.4C4.305 6.4 4.05 6.305 3.855 6.12C3.345 5.64 2.785 4.875 3 3.965C3.19 3.14 3.92 2.77 4.56 2.77C5.2 2.77 5.93 3.14 6.12 3.97C6.33 4.875 5.77 5.64 5.265 6.12Z" fill="white"/>
<path d="M9.73495 10.265C9.84495 10.375 9.82995 10.555 9.69495 10.63C9.25495 10.875 8.71995 11 8.09495 11H3.90495C3.75995 11 3.69995 10.83 3.79995 10.73L6.81995 7.71001C6.91995 7.61001 7.07495 7.61001 7.17495 7.71001L9.73495 10.265Z" fill="white"/>
<path d="M10.9999 3.90495V8.09495C10.9999 8.71995 10.8749 9.25995 10.6299 9.69495C10.5549 9.82995 10.3749 9.83995 10.2649 9.73495L7.70488 7.17495C7.60488 7.07495 7.60488 6.91995 7.70488 6.81995L10.7249 3.79995C10.8299 3.69995 10.9999 3.75995 10.9999 3.90495Z" fill="white"/>
</svg>
