<svg width="13" height="13" viewBox="0 0 13 13" fill="none" xmlns="http://www.w3.org/2000/svg">
<path d="M10.6942 4.69191L8.25118 2.2489C7.73885 1.73657 7.03237 1.46153 6.30972 1.49928L3.61325 1.62871C2.53466 1.67725 1.67718 2.53473 1.62325 3.60792L1.49382 6.3044C1.46146 7.02705 1.73111 7.73353 2.24344 8.24586L4.68644 10.6889C5.68953 11.6919 7.3182 11.6919 8.32668 10.6889L10.6942 8.32136C11.7027 7.32366 11.7027 5.69499 10.6942 4.69191ZM5.12327 6.67651C4.26579 6.67651 3.5701 5.98082 3.5701 5.12334C3.5701 4.26586 4.26579 3.57017 5.12327 3.57017C5.98075 3.57017 6.67644 4.26586 6.67644 5.12334C6.67644 5.98082 5.98075 6.67651 5.12327 6.67651Z" fill="#999999"/>
</svg>
