<svg width="13" height="13" viewBox="0 0 13 13" fill="none" xmlns="http://www.w3.org/2000/svg">
<path d="M8.93797 1.89963V1.0672C8.93797 0.848419 8.75654 0.666992 8.53776 0.666992C8.31898 0.666992 8.13755 0.848419 8.13755 1.0672V1.86761H4.6691V1.0672C4.6691 0.848419 4.48768 0.666992 4.2689 0.666992C4.05012 0.666992 3.86869 0.848419 3.86869 1.0672V1.89963C2.42795 2.03303 1.72893 2.89214 1.6222 4.16746C1.61153 4.3222 1.7396 4.45027 1.88901 4.45027H10.9176C11.0724 4.45027 11.2005 4.31687 11.1845 4.16746C11.0777 2.89214 10.3787 2.03303 8.93797 1.89963Z" fill="#999999"/>
<path d="M10.6722 5.25073H2.13444C1.84095 5.25073 1.60083 5.49086 1.60083 5.78434V9.07136C1.60083 10.6722 2.40124 11.7394 4.26887 11.7394H8.53773C10.4054 11.7394 11.2058 10.6722 11.2058 9.07136V5.78434C11.2058 5.49086 10.9656 5.25073 10.6722 5.25073ZM7.91875 7.99881L7.65194 8.27095H7.64661L6.02977 9.88778C5.96041 9.95715 5.81633 10.0319 5.71495 10.0425L4.99458 10.1493C4.73311 10.1866 4.55168 9.99984 4.58903 9.74371L4.69042 9.018C4.70643 8.91662 4.7758 8.77788 4.84517 8.70317L6.46733 7.08634L6.73414 6.8142C6.91023 6.63811 7.10766 6.51005 7.32111 6.51005C7.50253 6.51005 7.69997 6.59542 7.91875 6.8142C8.39899 7.29445 8.24425 7.67331 7.91875 7.99881Z" fill="#999999"/>
</svg>
