<svg width="13" height="13" viewBox="0 0 13 13" fill="none" xmlns="http://www.w3.org/2000/svg">
<path d="M6.40322 1.06726C3.4577 1.06726 1.06714 3.45782 1.06714 6.40334C1.06714 9.34885 3.4577 11.7394 6.40322 11.7394C9.34873 11.7394 11.7393 9.34885 11.7393 6.40334C11.7393 3.45782 9.34873 1.06726 6.40322 1.06726ZM4.61563 7.88143C4.55693 8.04151 4.40219 8.1429 4.2421 8.1429C4.19408 8.1429 4.15139 8.13756 4.10337 8.11622C3.67114 7.95614 3.30829 7.64131 3.07884 7.23043C2.54523 6.26994 2.87607 5.01596 3.80988 4.43433L5.05852 3.66059C5.51743 3.37778 6.05637 3.2924 6.56863 3.42581C7.0809 3.55921 7.51312 3.89538 7.77459 4.36496C8.30819 5.32545 7.97736 6.57943 7.04354 7.16106L6.90481 7.26245C6.72338 7.39051 6.47258 7.34782 6.34452 7.17173C6.21645 6.99031 6.25914 6.73951 6.43523 6.61144L6.60065 6.49405C7.19829 6.12053 7.40106 5.34679 7.07556 4.75449C6.92081 4.47701 6.67002 4.27958 6.3712 4.19954C6.07238 4.1195 5.75755 4.16752 5.48541 4.33828L4.2261 5.11734C3.6498 5.47486 3.44703 6.24859 3.77253 6.84623C3.90593 7.08636 4.11937 7.27312 4.37551 7.36917C4.58361 7.44387 4.69033 7.67332 4.61563 7.88143ZM9.02856 8.35101L7.77992 9.12474C7.46509 9.32217 7.11291 9.41822 6.7554 9.41822C6.59531 9.41822 6.4299 9.39688 6.26981 9.35419C5.75755 9.22079 5.32533 8.88461 5.0692 8.41504C4.53559 7.45454 4.86643 6.20057 5.80024 5.61893L5.93898 5.51755C6.1204 5.38948 6.3712 5.43217 6.49926 5.60826C6.62733 5.78969 6.58464 6.04048 6.40855 6.16855L6.24313 6.28594C5.64549 6.65947 5.44272 7.4332 5.76822 8.0255C5.92297 8.30298 6.17376 8.50042 6.47258 8.58046C6.7714 8.6605 7.08623 8.61247 7.35837 8.44172L8.60701 7.66799C9.18331 7.31047 9.38608 6.53674 9.06058 5.9391C8.92718 5.69898 8.71374 5.51221 8.4576 5.41616C8.2495 5.34146 8.14278 5.11201 8.22282 4.9039C8.29752 4.69579 8.53231 4.58907 8.73508 4.66911C9.1673 4.82919 9.53016 5.14402 9.75961 5.5549C10.2879 6.51539 9.96238 7.76937 9.02856 8.35101Z" fill="#999999"/>
</svg>
