<svg width="13" height="13" viewBox="0 0 13 13" fill="none" xmlns="http://www.w3.org/2000/svg">
<path d="M4.85364 1.07861C3.44069 1.07861 2.29199 2.22731 2.29199 3.64026C2.29199 5.02625 3.37597 6.14798 4.78893 6.19652C4.83207 6.19112 4.87521 6.19112 4.90757 6.19652C4.91836 6.19652 4.92375 6.19652 4.93453 6.19652C4.93993 6.19652 4.93993 6.19652 4.94532 6.19652C6.32591 6.14798 7.4099 5.02625 7.41529 3.64026C7.41529 2.22731 6.26659 1.07861 4.85364 1.07861Z" fill="#999999"/>
<path d="M7.59338 7.63098C6.08875 6.62789 3.63496 6.62789 2.11954 7.63098C1.43464 8.08938 1.05713 8.70957 1.05713 9.3729C1.05713 10.0362 1.43464 10.651 2.11415 11.104C2.86916 11.611 3.86146 11.8644 4.85376 11.8644C5.84606 11.8644 6.83837 11.611 7.59338 11.104C8.27289 10.6456 8.65039 10.0308 8.65039 9.36211C8.645 8.69878 8.27289 8.08399 7.59338 7.63098Z" fill="#999999"/>
<path d="M10.7804 3.95837C10.8667 5.0046 10.1225 5.9214 9.09244 6.04544C9.08704 6.04544 9.08704 6.04544 9.08165 6.04544H9.06547C9.03311 6.04544 9.00075 6.04544 8.97379 6.05623C8.45067 6.08319 7.9707 5.91601 7.60938 5.60861C8.16485 5.11246 8.48303 4.36824 8.41832 3.5593C8.38057 3.12247 8.22956 2.72339 8.00306 2.38363C8.20799 2.28117 8.44528 2.21645 8.68796 2.19488C9.74498 2.1032 10.6887 2.89057 10.7804 3.95837Z" fill="#999999"/>
<path d="M11.859 8.94689C11.8159 9.47001 11.4815 9.92302 10.9207 10.2304C10.3814 10.527 9.70186 10.6672 9.02774 10.6511C9.41603 10.3005 9.64253 9.8637 9.68568 9.3999C9.73961 8.73118 9.42142 8.08942 8.78506 7.57709C8.42373 7.29126 8.00308 7.06476 7.54468 6.89758C8.73652 6.55243 10.2358 6.78432 11.158 7.52855C11.6541 7.92763 11.9076 8.42917 11.859 8.94689Z" fill="#999999"/>
</svg>
